<?xml version="1.0" encoding="utf-8"?>
<!-- Generator: Adobe Illustrator 24.0.3, SVG Export Plug-In . SVG Version: 6.00 Build 0)  -->
<svg version="1.1" xmlns="http://www.w3.org/2000/svg" xmlns:xlink="http://www.w3.org/1999/xlink" x="0px" y="0px"
	 viewBox="0 0 1200 800" style="enable-background:new 0 0 1200 800;" xml:space="preserve">
<style type="text/css">
	.st0{fill:#757575;stroke:#000000;stroke-miterlimit:10;}
	.st1{fill:#757575;}
	.st2{fill:#9B9B9B;stroke:#000000;stroke-miterlimit:10;}
	.st3{fill:#B7B3B3;}
	.st4{stroke:#000000;stroke-miterlimit:10;}
	.st5{fill:#757575;stroke:#070707;stroke-miterlimit:10;}
</style>
<g id="Layer_8">
	<ellipse class="st0" cx="949.85" cy="563.06" rx="77.07" ry="197.95"/>
</g>
<g id="Layer_4">
	
		<rect x="734.18" y="545.36" transform="matrix(-9.873534e-04 -1 1 -9.873534e-04 369.9726 1495.7645)" class="st1" width="395.9" height="35.44"/>
	<line class="st0" x1="914.21" y1="365.15" x2="949.66" y2="365.11"/>
	<line class="st0" x1="918.37" y1="761.04" x2="953.81" y2="761.01"/>
</g>
<g id="Layer_6">
	<ellipse class="st0" cx="914.41" cy="563.1" rx="77.07" ry="197.95"/>
</g>
<g id="Layer_11">
	<ellipse class="st2" cx="911.48" cy="388.89" rx="7.22" ry="15.49"/>
	<ellipse class="st2" cx="911.83" cy="739.2" rx="7.22" ry="15.49"/>
	<ellipse class="st2" cx="912.09" cy="473.31" rx="7.22" ry="15.49"/>
	<ellipse class="st2" cx="980.13" cy="563.03" rx="7.22" ry="15.49"/>
	<ellipse class="st2" cx="490.66" cy="174.04" rx="15.49" ry="7.22"/>
	
		<rect x="898.92" y="387.5" transform="matrix(-9.873534e-04 -1 1 -9.873534e-04 523.4858 1300.7587)" class="st3" width="25.12" height="2.79"/>
	
		<rect x="967.57" y="561.83" transform="matrix(-9.873534e-04 -1 1 -9.873534e-04 417.8736 1543.903)" class="st3" width="25.12" height="2.79"/>
	
		<rect x="922.01" y="633.01" transform="matrix(-9.873534e-04 -1 1 -9.873534e-04 301.0896 1569.6053)" class="st3" width="25.12" height="2.79"/>
	
		<rect x="922.01" y="633.01" transform="matrix(-9.873534e-04 -1 1 -9.873534e-04 301.0896 1569.6053)" class="st3" width="25.12" height="2.79"/>
	
		<rect x="899.27" y="737.81" transform="matrix(-9.873534e-04 -1 1 -9.873534e-04 173.5222 1651.7605)" class="st3" width="25.12" height="2.79"/>
</g>
<g id="Layer_17">
	<path class="st0" d="M328.97,178.26l0.21,385.47c0,0-12.6,154.25,141.51,154.03l442.87-1.02l-0.3-306.21l-275.75-1.3l-0.19-227.11
		L328.97,178.26z"/>
</g>
<g id="Layer_16">
</g>
<g id="Layer_13">
</g>
<g id="Layer_9">
</g>
<g id="Layer_3">
	<ellipse class="st0" cx="482.97" cy="139.05" rx="197.95" ry="77.07"/>
</g>
<g id="Layer_7">
	<rect x="285.21" y="107.15" class="st1" width="395.9" height="31.9"/>
	<polyline class="st4" points="285.21,107.15 285.21,139.05 285.21,107.15 	"/>
	<line class="st4" x1="681.11" y1="107.15" x2="681.11" y2="139.05"/>
</g>
<g id="Layer_2">
	<ellipse class="st0" cx="483.16" cy="107.15" rx="197.95" ry="77.07"/>
</g>
<g id="Layer_12">
	<ellipse class="st2" cx="483.16" cy="173.04" rx="15.49" ry="7.22"/>
	<ellipse class="st2" cx="657.37" cy="107.15" rx="15.49" ry="7.22"/>
	<ellipse class="st2" cx="307.06" cy="107.15" rx="15.49" ry="7.22"/>
	<ellipse class="st2" cx="482.97" cy="41.27" rx="15.49" ry="7.22"/>
	<rect x="644.58" y="105.46" class="st3" width="25.12" height="2.79"/>
	<rect x="470.42" y="171.64" class="st3" width="25.12" height="2.79"/>
	<rect x="294.5" y="105.76" class="st3" width="25.12" height="2.79"/>
	<rect x="470.42" y="39.87" class="st3" width="25.12" height="2.79"/>
</g>
<g id="Layer_1">
	<ellipse cx="482.97" cy="107.15" rx="154.26" ry="55.67"/>
	<ellipse class="st0" cx="914.41" cy="563.1" rx="55.67" ry="154.26"/>
</g>
<g id="Layer_10">
	
		<rect x="732.47" y="535.83" transform="matrix(-9.895877e-04 -1 1 -9.895877e-04 322.7922 1449.7981)" class="st1" width="306.21" height="55.67"/>
</g>
<g id="Layer_15">
	<line class="st0" x1="483.16" y1="184.22" x2="482.97" y2="216.11"/>
	<line class="st0" x1="674.53" y1="126.91" x2="674.53" y2="158.54"/>
	<line class="st0" x1="294.5" y1="130.53" x2="294.5" y2="162.66"/>
	<line class="st0" x1="340.93" y1="160.74" x2="340.93" y2="192.72"/>
	<line class="st0" x1="625.4" y1="160.74" x2="625.02" y2="192.72"/>
	<line class="st5" x1="562.15" y1="177.83" x2="562.15" y2="209.7"/>
	<line class="st0" x1="404.17" y1="177.83" x2="403.79" y2="209.7"/>
	<line class="st0" x1="991.48" y1="563.02" x2="1026.92" y2="562.98"/>
	<line class="st0" x1="936.09" y1="753.22" x2="971.49" y2="753.22"/>
	<line class="st0" x1="936.09" y1="373.22" x2="971.58" y2="373.22"/>
	<line class="st0" x1="967.51" y1="419.92" x2="1002.96" y2="419.92"/>
	<line class="st0" x1="967.51" y1="706.86" x2="1002.96" y2="706.86"/>
	<line class="st0" x1="985.75" y1="638.46" x2="1021.19" y2="638.46"/>
	<line class="st0" x1="985.75" y1="488.51" x2="1021.19" y2="488.51"/>
</g>
</svg>
