<?xml version="1.0" encoding="utf-8"?>
<!-- Generator: Adobe Illustrator 24.0.3, SVG Export Plug-In . SVG Version: 6.00 Build 0)  -->
<svg version="1.1" xmlns="http://www.w3.org/2000/svg" xmlns:xlink="http://www.w3.org/1999/xlink" x="0px" y="0px"
	 viewBox="0 0 1200 800" style="enable-background:new 0 0 1200 800;" xml:space="preserve">
<style type="text/css">
	.st0{fill:#757575;stroke:#000000;stroke-miterlimit:10;}
	.st1{fill:#757575;}
	.st2{fill:#9B9B9B;stroke:#000000;stroke-miterlimit:10;}
	.st3{fill:#B7B3B3;}
	.st4{stroke:#000000;stroke-miterlimit:10;}
	.st5{fill:none;stroke:#000000;stroke-miterlimit:10;}
</style>
<g id="Layer_8">
	<ellipse class="st0" cx="592.59" cy="714.27" rx="197.95" ry="77.07"/>
</g>
<g id="Layer_4">
	<rect x="394.64" y="678.83" class="st1" width="395.9" height="35.44"/>
	<line class="st0" x1="790.55" y1="678.83" x2="790.55" y2="714.27"/>
	<line class="st0" x1="394.64" y1="678.83" x2="394.64" y2="714.27"/>
</g>
<g id="Layer_6">
	<ellipse class="st0" cx="592.59" cy="678.83" rx="197.95" ry="77.07"/>
</g>
<g id="Layer_11">
	<ellipse class="st2" cx="766.8" cy="676.08" rx="15.49" ry="7.22"/>
	<ellipse class="st2" cx="416.49" cy="676.08" rx="15.49" ry="7.22"/>
	<ellipse class="st2" cx="682.38" cy="676.6" rx="15.49" ry="7.22"/>
	<ellipse class="st2" cx="592.59" cy="744.55" rx="15.49" ry="7.22"/>
	<ellipse class="st2" cx="600.09" cy="184.17" rx="15.49" ry="7.22"/>
	<rect x="754.24" y="674.68" class="st3" width="25.12" height="2.79"/>
	<rect x="579.85" y="743.15" class="st3" width="25.12" height="2.79"/>
	<rect x="508.71" y="697.53" class="st3" width="25.12" height="2.79"/>
	<rect x="508.71" y="697.53" class="st3" width="25.12" height="2.79"/>
	<rect x="403.93" y="674.68" class="st3" width="25.12" height="2.79"/>
</g>
<g id="Layer_5">
	<rect x="438.33" y="184.92" class="st0" width="308.52" height="489.94"/>
</g>
<g id="Layer_9">
</g>
<g id="Layer_3">
	<ellipse class="st0" cx="592.41" cy="149.18" rx="197.95" ry="77.07"/>
</g>
<g id="Layer_7">
	<rect x="394.64" y="117.28" class="st1" width="395.9" height="31.9"/>
	<polyline class="st4" points="394.64,117.28 394.64,149.18 394.64,117.28 	"/>
	<line class="st4" x1="790.55" y1="117.28" x2="790.55" y2="149.18"/>
</g>
<g id="Layer_2">
	<ellipse class="st0" cx="592.59" cy="117.28" rx="197.95" ry="77.07"/>
</g>
<g id="Layer_12">
	<ellipse class="st2" cx="592.59" cy="183.17" rx="15.49" ry="7.22"/>
	<ellipse class="st2" cx="766.8" cy="117.28" rx="15.49" ry="7.22"/>
	<ellipse class="st2" cx="416.49" cy="117.28" rx="15.49" ry="7.22"/>
	<ellipse class="st2" cx="592.41" cy="51.4" rx="15.49" ry="7.22"/>
	<rect x="754.01" y="115.59" class="st3" width="25.12" height="2.79"/>
	<rect x="579.85" y="181.77" class="st3" width="25.12" height="2.79"/>
	<rect x="403.93" y="115.89" class="st3" width="25.12" height="2.79"/>
	<rect x="579.85" y="50" class="st3" width="25.12" height="2.79"/>
</g>
<g id="Layer_1">
	<ellipse cx="592.41" cy="117.28" rx="154.26" ry="55.67"/>
	<ellipse class="st0" cx="592.59" cy="678.83" rx="154.26" ry="55.67"/>
</g>
<g id="Layer_10">
	<rect x="438.95" y="622.17" class="st1" width="306.9" height="55.67"/>
</g>
<g id="Layer_13">
	<line class="st5" x1="447.85" y1="169.84" x2="447.85" y2="201.82"/>
	<line class="st5" x1="735.03" y1="169.92" x2="735.03" y2="201.74"/>
	<line class="st5" x1="592.41" y1="226.25" x2="592.59" y2="194.35"/>
	<line class="st5" x1="668.35" y1="220.1" x2="668.54" y2="188.2"/>
	<line class="st5" x1="514.27" y1="220.1" x2="514.46" y2="188.2"/>
	<line class="st5" x1="784.27" y1="136.6" x2="783.09" y2="169.92"/>
	<line class="st5" x1="398.71" y1="133.23" x2="398.71" y2="165.13"/>
	<line class="st5" x1="592.59" y1="755.9" x2="592.59" y2="791.34"/>
	<line class="st5" x1="668.54" y1="749.86" x2="668.54" y2="785.46"/>
	<line class="st5" x1="735.03" y1="731.94" x2="735.03" y2="767.46"/>
	<line class="st5" x1="514.27" y1="749.63" x2="514.46" y2="785.1"/>
	<line class="st5" x1="447.85" y1="731.65" x2="447.85" y2="766.84"/>
	<line class="st5" x1="784.27" y1="697.74" x2="784.27" y2="733.5"/>
	<line class="st5" x1="401" y1="733.72" x2="401" y2="697.25"/>
</g>
</svg>
